<svg width="343" height="56" viewBox="0 0 343 56" fill="none" xmlns="http://www.w3.org/2000/svg">
<rect width="343" height="56" fill="#FFF5EE"/>
<g clip-path="url(#clip0_102_919)">
<path d="M311 47.2969C323.867 47.2969 334.297 36.8665 334.297 24C334.297 11.1335 323.867 0.703125 311 0.703125C298.133 0.703125 287.703 11.1335 287.703 24C287.703 36.8665 298.133 47.2969 311 47.2969Z" fill="#FEF5E4"/>
<path d="M311 43.5234C321.782 43.5234 330.523 34.7825 330.523 24C330.523 13.2175 321.782 4.47656 311 4.47656C300.218 4.47656 291.477 13.2175 291.477 24C291.477 34.7825 300.218 43.5234 311 43.5234Z" fill="#FFF5EE"/>
<path d="M311 4.47656C310.239 4.47656 309.488 4.52166 308.75 4.60641C318.473 5.72222 326.023 13.9786 326.023 24C326.023 34.0214 318.473 42.2778 308.75 43.3936C309.488 43.4783 310.239 43.5234 311 43.5234C321.782 43.5234 330.523 34.7825 330.523 24C330.523 13.2175 321.782 4.47656 311 4.47656Z" fill="#FFF5EE"/>
<path d="M319.596 23.0868L305.423 14.9041C304.72 14.4982 303.841 15.0055 303.841 15.8172V32.1827C303.841 32.9944 304.72 33.5016 305.423 33.0958L319.596 24.9131C320.299 24.5072 320.299 23.4926 319.596 23.0868V23.0868Z" fill="#5BA092"/>
<path d="M311 44.2266C305.597 44.2266 300.518 42.1226 296.698 38.3023C292.877 34.4821 290.773 29.4027 290.773 24C290.773 20.727 291.574 17.4758 293.087 14.5978C294.552 11.8126 296.682 9.37087 299.247 7.53647C299.985 7.00884 300.803 8.15278 300.065 8.68031C297.678 10.3877 295.695 12.6603 294.332 15.2524C292.924 17.9293 292.18 20.9542 292.18 24C292.18 34.3776 300.622 42.8203 311 42.8203C321.378 42.8203 329.82 34.3776 329.82 24C329.82 13.6224 321.378 5.17969 311 5.17969C308.562 5.17969 306.191 5.63869 303.951 6.54403C303.11 6.88378 302.583 5.58009 303.424 5.24025C305.832 4.26694 308.381 3.77344 311 3.77344C316.403 3.77344 321.482 5.87738 325.302 9.69769C329.123 13.518 331.227 18.5973 331.227 24C331.227 29.4027 329.123 34.4821 325.302 38.3023C321.482 42.1226 316.403 44.2266 311 44.2266V44.2266Z" fill="#6D6D78"/>
<path d="M311 48C304.589 48 298.562 45.5035 294.029 40.9706C289.496 36.4375 287 30.4106 287 24C287 17.5894 289.496 11.5625 294.029 7.02938C298.562 2.49647 304.589 0 311 0C317.411 0 323.438 2.49647 327.971 7.02938C332.504 11.5625 335 17.5894 335 24C335 27.8416 334.119 31.5119 332.383 34.9092C330.727 38.1492 328.309 41.019 325.391 43.2086C324.665 43.7533 323.821 42.6281 324.547 42.0838C327.295 40.022 329.571 37.3197 331.131 34.2692C332.765 31.0719 333.594 27.6169 333.594 24C333.594 17.9649 331.244 12.2912 326.976 8.02378C322.709 3.75637 317.035 1.40625 311 1.40625C304.965 1.40625 299.291 3.75637 295.024 8.02378C290.756 12.2912 288.406 17.9649 288.406 24C288.406 30.0351 290.756 35.7088 295.024 39.9762C299.291 44.2436 304.965 46.5938 311 46.5938C314.441 46.5938 317.745 45.8404 320.819 44.3544C321.636 43.9599 322.248 45.2259 321.431 45.6205C318.164 47.1995 314.655 48 311 48V48Z" fill="#6D6D78"/>
<path d="M304.896 33.9431C303.933 33.9431 303.138 33.1374 303.138 32.1827V22.0313C303.138 21.1243 304.544 21.1243 304.544 22.0313V32.1827C304.544 32.4512 304.839 32.6212 305.071 32.4869L319.244 24.3042C319.477 24.17 319.477 23.83 319.244 23.6958L305.071 15.5131C304.839 15.3789 304.544 15.5488 304.544 15.8173V18.0938C304.544 19.0007 303.138 19.0007 303.138 18.0938V15.8173C303.138 14.4922 304.626 13.6322 305.774 14.2953L319.947 22.478C321.095 23.1407 321.096 24.8591 319.947 25.5221L305.774 33.7048C305.499 33.8636 305.197 33.9431 304.896 33.9431Z" fill="#6D6D78"/>
</g>
<defs>
<clipPath id="clip0_102_919">
<rect width="48" height="48" fill="white" transform="translate(287)"/>
</clipPath>
</defs>
</svg>
