<svg width="208" height="80" viewBox="0 0 208 80" fill="none" xmlns="http://www.w3.org/2000/svg">
<path d="M20 28C20 23.5817 23.5817 20 28 20H52C56.4183 20 60 23.5817 60 28V52C60 56.4183 56.4183 60 52 60H28C23.5817 60 20 56.4183 20 52V28Z" fill="#65AAEA"/>
<path d="M40.8878 36.5765V33.8214C40.8878 33.061 41.5049 32.4439 42.2653 32.4439H43.6429V29H40.8878C38.6052 29 36.7551 30.8501 36.7551 33.1327V36.5765H34V40.0204H36.7551V51.0408H40.8878V40.0204H43.6429L45.0204 36.5765H40.8878Z" fill="white"/>
<path d="M148 28C148 23.5817 151.582 20 156 20H180C184.418 20 188 23.5817 188 28V52C188 56.4183 184.418 60 180 60H156C151.582 60 148 56.4183 148 52V28Z" fill="#65AAEA"/>
<path d="M176.572 39V36H175.072V39H172.072V40.5H175.072V43.5H176.572V40.5H179.572V39H176.572Z" fill="white"/>
<path d="M163.072 38V41H167.315C166.696 42.746 165.028 44 163.072 44C160.591 44 158.572 41.981 158.572 39.5C158.572 37.019 160.591 35 163.072 35C164.147 35 165.182 35.3855 165.986 36.086L167.957 33.824C166.607 32.648 164.873 32 163.072 32C158.936 32 155.572 35.3645 155.572 39.5C155.572 43.6355 158.936 47 163.072 47C167.207 47 170.572 43.6355 170.572 39.5V38H163.072Z" fill="white"/>
<path d="M84 28C84 23.5817 87.5817 20 92 20H116C120.418 20 124 23.5817 124 28V52C124 56.4183 120.418 60 116 60H92C87.5817 60 84 56.4183 84 52V28Z" fill="#65AAEA"/>
<path d="M108.45 40.9796C108.45 43.1724 106.673 44.9502 104.48 44.9502C102.287 44.9502 100.509 43.1724 100.509 40.9796C100.509 38.7868 102.287 37.009 104.48 37.009C106.673 37.009 108.45 38.7868 108.45 40.9796Z" fill="white"/>
<path d="M111.185 28.9796H97.7736C94.8543 28.9796 92.4795 31.3544 92.4795 34.2737V47.6855C92.4795 50.6048 94.8543 52.9796 97.7736 52.9796H111.185C114.105 52.9796 116.479 50.6048 116.479 47.6855V34.2737C116.479 31.3544 114.105 28.9796 111.185 28.9796ZM104.479 47.5973C100.83 47.5973 97.8618 44.6286 97.8618 40.9796C97.8618 37.3306 100.83 34.362 104.479 34.362C108.129 34.362 111.097 37.3306 111.097 40.9796C111.097 44.6286 108.129 47.5973 104.479 47.5973ZM112.068 34.7149C111.337 34.7149 110.744 34.1224 110.744 33.3914C110.744 32.6603 111.337 32.0678 112.068 32.0678C112.799 32.0678 113.391 32.6603 113.391 33.3914C113.391 34.1224 112.799 34.7149 112.068 34.7149Z" fill="white"/>
<rect x="0.5" y="0.5" width="207" height="79" rx="4.5" stroke="#7B61FF" stroke-dasharray="10 5"/>
</svg>
