<svg width="24" height="24" viewBox="0 0 24 24" fill="none" xmlns="http://www.w3.org/2000/svg">
<g clip-path="url(#clip0_53_127)">
<path d="M14.828 9.17166C14.633 8.97666 14.316 8.97666 14.121 9.17166C13.926 9.36666 13.926 9.68466 14.121 9.87867C14.687 10.4447 15 11.1977 15 11.9997C15 13.6537 13.654 14.9997 12 14.9997C11.198 14.9997 10.445 14.6877 9.87902 14.1207C9.68402 13.9257 9.36701 13.9257 9.17201 14.1207C8.97701 14.3147 8.97701 14.6327 9.17201 14.8277C9.92599 15.5837 10.931 15.9997 12 15.9997C14.206 15.9997 16 14.2057 16 11.9997C16 10.9306 15.584 9.92564 14.828 9.17166Z" fill="#3C3A36"/>
<path d="M12.6971 8.06863C12.4701 8.02864 12.2381 7.99963 12.0001 7.99963C9.79412 7.99963 8.00012 9.79362 8.00012 11.9996C8.00012 12.2376 8.02914 12.4696 8.07011 12.6966C8.11309 12.9386 8.32412 13.1096 8.56112 13.1096C8.59014 13.1096 8.61911 13.1076 8.64911 13.1016C8.92009 13.0536 9.10211 12.7936 9.05411 12.5226C9.02312 12.3526 9.00011 12.1796 9.00011 11.9996C9.00011 10.3456 10.3461 8.99961 12.0001 8.99961C12.1801 8.99961 12.3531 9.02262 12.5231 9.05262C12.7891 9.10662 13.0541 8.91861 13.1021 8.64763C13.1501 8.37664 12.9681 8.11663 12.6971 8.06863Z" fill="#3C3A36"/>
<path d="M23.881 11.6766C23.768 11.5426 21.063 8.38564 17.332 6.45266C17.09 6.32568 16.785 6.42168 16.658 6.66768C16.531 6.91269 16.627 7.21466 16.873 7.34169C19.747 8.82969 22.043 11.1517 22.828 11.9997C21.636 13.2907 16.945 17.9997 12 17.9997C10.322 17.9997 8.63102 17.5947 6.97202 16.7947C6.72602 16.6737 6.42504 16.7787 6.30504 17.0277C6.18405 17.2757 6.28905 17.5747 6.53805 17.6947C8.33303 18.5617 10.171 18.9997 12.0001 18.9997C18.1611 18.9997 23.6511 12.5957 23.8821 12.3227C24.04 12.1366 24.039 11.8636 23.881 11.6766Z" fill="#3C3A36"/>
<path d="M15.2811 5.57563C14.1431 5.19261 13.0391 4.99963 12 4.99963C5.83904 4.99963 0.349052 11.4036 0.118052 11.6766C-0.0279632 11.8486 -0.0399632 12.0986 0.0900678 12.2856C0.159068 12.3846 1.81206 14.7316 4.67706 16.6346C4.76204 16.6916 4.85706 16.7186 4.95306 16.7186C5.11407 16.7186 5.27307 16.6406 5.36907 16.4936C5.52207 16.2647 5.45907 15.9536 5.22906 15.8016C3.12508 14.4026 1.68508 12.7136 1.14607 12.0266C2.29708 10.7766 7.01907 5.99966 12 5.99966C12.931 5.99966 13.9281 6.17567 14.962 6.52264C15.224 6.61663 15.508 6.47164 15.595 6.20863C15.6831 5.94664 15.543 5.66366 15.2811 5.57563Z" fill="#3C3A36"/>
</g>
<defs>
<clipPath id="clip0_53_127">
<rect width="24" height="24" fill="white"/>
</clipPath>
</defs>
</svg>
