<svg width="28" height="36" viewBox="0 0 28 36" fill="none" xmlns="http://www.w3.org/2000/svg">
<path d="M21.5044 22.2209C19.9247 21.4095 20.5334 22.0302 18.5941 21.2001C16.655 20.3713 16.1956 20.1003 16.1956 20.1003L16.1784 18.1991C16.1784 18.1991 16.9047 17.63 17.1312 15.832C17.5847 15.9675 17.7381 15.2832 17.7628 14.846C17.7897 14.4237 18.0309 13.1074 17.4762 13.2249C17.5897 12.346 17.6787 11.5514 17.6387 11.1307C17.5 9.65441 16.5112 8.1126 14.0153 8C11.8934 8.1126 10.5159 9.65537 10.3769 11.1317C10.3369 11.5524 10.4184 12.3464 10.5319 13.2268C9.9775 13.1078 10.2162 14.4266 10.2406 14.8486C10.2675 15.2858 10.4175 15.972 10.8719 15.8365C11.0975 17.6348 11.8237 18.2081 11.8237 18.2081L11.8056 20.1196C11.8056 20.1196 11.3462 20.409 9.40719 21.2378C7.46812 22.0683 8.07625 21.4098 6.49656 22.2209C4 23.5033 4 27.0299 4 27.0299C4 27.5667 4.41969 28 4.9375 28H23.0625C23.5803 28 24 27.5667 24 27.0321C24.0003 27.0299 24.0003 23.5026 21.5044 22.2209Z" fill="#BEBAB3"/>
</svg>
