<svg width="30" height="38" viewBox="0 0 30 38" fill="none" xmlns="http://www.w3.org/2000/svg">
<g clip-path="url(#clip0_0_67)">
<path d="M26.1 17.208L24.804 17.078C24.717 16.629 24.599 16.188 24.454 15.762L25.51 15.003C25.928 14.702 26.05 14.138 25.792 13.691L24.994 12.31C24.737 11.864 24.188 11.687 23.717 11.898L22.535 12.432C22.236 12.089 21.912 11.765 21.569 11.466L22.103 10.283C22.314 9.813 22.137 9.264 21.691 9.006L20.31 8.209C19.862 7.951 19.299 8.073 18.998 8.491L18.239 9.547C17.813 9.401 17.372 9.284 16.923 9.197L16.793 7.901C16.741 7.387 16.313 7 15.797 7H14.202C13.686 7 13.258 7.387 13.207 7.9L13.077 9.196C12.628 9.283 12.187 9.401 11.761 9.546L11.002 8.491C10.702 8.073 10.138 7.951 9.69 8.209L8.31 9.006C7.863 9.264 7.686 9.813 7.898 10.284L8.432 11.466C8.088 11.765 7.765 12.088 7.466 12.432L6.283 11.897C5.813 11.686 5.264 11.863 5.006 12.31L4.209 13.69C3.951 14.138 4.073 14.702 4.491 15.002L5.547 15.761C5.401 16.187 5.284 16.628 5.197 17.077L3.901 17.207C3.387 17.259 3 17.687 3 18.203V19.798C3 20.314 3.387 20.742 3.9 20.793L5.196 20.923C5.283 21.372 5.401 21.813 5.546 22.239L4.49 22.998C4.072 23.299 3.95 23.863 4.208 24.31L5.005 25.691C5.263 26.138 5.813 26.316 6.282 26.103L7.464 25.569C7.763 25.912 8.087 26.236 8.43 26.535L7.896 27.718C7.685 28.188 7.862 28.737 8.308 28.995L9.689 29.792C10.137 30.051 10.701 29.929 11.001 29.51L11.76 28.454C12.186 28.6 12.627 28.717 13.076 28.804L13.206 30.1C13.259 30.613 13.687 31 14.203 31H15.798C16.314 31 16.742 30.613 16.793 30.1L16.923 28.804C17.372 28.717 17.813 28.599 18.239 28.454L18.998 29.51C19.299 29.928 19.861 30.049 20.31 29.792L21.691 28.995C22.137 28.737 22.315 28.188 22.103 27.718L21.569 26.536C21.912 26.237 22.236 25.913 22.535 25.57L23.718 26.104C24.188 26.315 24.738 26.139 24.995 25.692L25.792 24.311C26.05 23.864 25.928 23.3 25.51 22.999L24.454 22.24C24.6 21.814 24.717 21.373 24.804 20.924L26.1 20.794C26.613 20.741 27 20.313 27 19.797V18.202C27 17.687 26.613 17.259 26.1 17.208V17.208ZM15 12C18.519 12 21.432 14.613 21.92 18H17.288C16.901 17.119 16.023 16.5 15 16.5C14.907 16.5 14.818 16.518 14.727 16.528L12.405 12.504C13.208 12.182 14.083 12 15 12ZM8 19C8 16.773 9.049 14.79 10.674 13.507L12.993 17.523C12.687 17.939 12.5 18.446 12.5 19C12.5 19.554 12.687 20.061 12.993 20.476L10.674 24.492C9.049 23.209 8 21.227 8 19V19ZM15 26C14.083 26 13.208 25.818 12.405 25.495L14.728 21.472C14.818 21.482 14.907 21.5 15 21.5C16.023 21.5 16.901 20.881 17.288 20H21.92C21.432 23.387 18.519 26 15 26Z" fill="#BEBAB3"/>
</g>
<defs>
<clipPath id="clip0_0_67">
<rect width="24" height="24" fill="white" transform="translate(3 7)"/>
</clipPath>
</defs>
</svg>
